HIERARCHY
ROOT pelvis
{
  OFFSET 0 100 0
  CHANNELS 6 Xposition Yposition Zposition Zrotation Xrotation Yrotation
  JOINT pelvis_right_femur
  {
    OFFSET -10.78128 -3.44521 -0.5502486
    CHANNELS 3 Zrotation Xrotation Yrotation
    JOINT right_femur_tibia
    {
      OFFSET -0.8047443 -44.0398 -0.1307829
      CHANNELS 3 Zrotation Xrotation Yrotation
      JOINT right_tibia_foot
      {
        OFFSET 3.006224 -47.83518 -5
        CHANNELS 3 Zrotation Xrotation Yrotation
        End Site
        {
          OFFSET 0 -5 15
        }
      }
    }
  }
  JOINT pelvis_left_femur
  {
    OFFSET 10.78128 -3.44521 -0.5502486
    CHANNELS 3 Zrotation Xrotation Yrotation
    JOINT left_femur_tibia
    {
      OFFSET 0.8047443 -44.0398 -0.1307829
      CHANNELS 3 Zrotation Xrotation Yrotation
      JOINT left_tibia_foot
      {
        OFFSET -4.370144 -48.10324 -4.275266
        CHANNELS 3 Zrotation Xrotation Yrotation
        End Site
        {
          OFFSET 0 -5 15
        }
      }
    }
  }
  JOINT pelvis_spine1
  {
    OFFSET 0 6.468898 -3.129235
    CHANNELS 3 Zrotation Xrotation Yrotation
    JOINT spine1
    {
      OFFSET 0 23.15396 4.99043
      CHANNELS 3 Zrotation Xrotation Yrotation
      JOINT spine2
      {
        OFFSET 0 20.79997 -5.064912
        CHANNELS 3 Zrotation Xrotation Yrotation
        JOINT neck
        {
          OFFSET 0 14.38658 9.616178
          CHANNELS 3 Zrotation Xrotation Yrotation
          End Site
          {
            OFFSET 0 20 0
          }
        }
      }
      JOINT right_manubrium
      {
        OFFSET -5.722621 16.35077 3.967754
        CHANNELS 3 Zrotation Xrotation Yrotation
        JOINT right_clavicle
        {
          OFFSET -13.16364 1.694482 -4.693211
          CHANNELS 3 Zrotation Xrotation Yrotation
          JOINT right_humerus
          {
            OFFSET -28.5034 -0.3100689 -2.792744
            CHANNELS 3 Zrotation Xrotation Yrotation
            JOINT right_radius
            {
              OFFSET -25.15693 0.02248979 -1.271978
              CHANNELS 3 Zrotation Xrotation Yrotation
              End Site
              {
                OFFSET -15 0 0
              }
            }
          }
        }
      }
      JOINT left_manubrium
      {
        OFFSET 5.722621 16.35077 3.967754
        CHANNELS 3 Zrotation Xrotation Yrotation
        JOINT left_clavicle
        {
          OFFSET 13.16364 1.694482 -4.693211
          CHANNELS 3 Zrotation Xrotation Yrotation
          JOINT left_humerus
          {
            OFFSET 29.39168 -1.063119 -2.237045
            CHANNELS 3 Zrotation Xrotation Yrotation
            JOINT left_radius
            {
              OFFSET 24.59957 -0.9528479 0.9047498
              CHANNELS 3 Zrotation Xrotation Yrotation
              End Site
              {
                OFFSET 15 -0 -0
              }
            }
          }
        }
      }
    }
  }
}
MOTION
Frames: 21
Frame Time: 0.0416666666667
0 103.5113 0 2.019193 -2.173375 0.2744223 1.904635 -13.93158 7.013071 -0 37.91665 -0 -5.925696 -14.49894 -4.106089 -8.160687 11.66131 -24.98754 -0 5.302501 -0 0.7012967 -21.23159 24.33231 -4.014167 -2.91199 4.338534 1.332782 8.577208 -7.354239 0.5272214 23.28551 8.387346 5.150245 -21.65069 7.803512 7.511655 -19.58521 11.71752 86.70934 37.82642 -22.00027 -0 0 15.59857 -8.174485 7.762967 5.355424 4.706903 -19.44292 -4.269711 -100.2683 42.20728 28.82076 0 0 -23.71251 -12.37579 14.946 29.04133
0.3249122 103.1261 1.038921 1.822993 -1.992643 0.4725048 2.20637 -14.90745 7.088315 -0 38.38681 -0 -5.861121 -14.39381 -4.04405 -7.982074 11.67516 -25.11728 -0 5.051142 -0 0.5142558 -21.5601 24.2594 -3.845891 -2.808383 4.328408 1.261661 8.465452 -7.319038 0.5948495 23.19728 8.45293 5.238309 -21.72619 7.916013 7.565787 -19.5446 11.65888 86.56373 37.91817 -21.87049 -0 0 15.86583 -8.029845 7.930634 5.108995 4.913028 -19.44291 -4.113657 -100.529 42.15569 29.10781 0 0 -23.55968 -12.22894 15.31406 28.97243
0.4953291 102.5042 3.063483 -0.609293 0.9965803 0.7391822 5.667421 -28.24706 6.774244 -0 32.79457 -0 -5.972742 -9.850914 -3.426344 -5.210908 13.59531 -23.39442 -0 3.425352 -0 -2.76482 -25.34107 19.75291 -2.280869 -1.095139 3.250999 1.720249 6.976626 -7.82154 1.129059 21.58097 8.825293 5.652044 -23.9567 8.882679 6.972594 -18.11939 10.88684 85.53188 37.01271 -21.03709 -0 0 16.78038 -7.961546 9.408282 4.185159 6.866084 -19.87903 -2.314864 -98.338 38.75058 26.295 0 0 -22.21665 -7.907174 17.24948 24.30818
0.6032999 101.7294 5.744488 -1.777941 2.812742 1.136022 7.396696 -33.49399 6.545019 -0 27.65508 -0 -6.297633 -7.123264 -2.79632 -4.141151 14.47079 -21.94976 -0 4.885424 -0 -4.87526 -25.93524 16.5974 -1.425972 -0.254786 2.646703 2.242698 6.33307 -8.207404 1.172028 20.81302 8.992399 5.750266 -25.45038 9.198086 6.737089 -17.36225 10.65426 85.19868 36.86634 -20.8663 -0 0 16.53661 -7.965584 9.910666 4.344383 7.232579 -19.90121 -1.793985 -97.32472 37.11132 25.0001 0 0 -21.70671 -5.91594 17.15838 22.32109
0.6550577 101.03 9.433387 -2.859702 4.570604 1.565783 8.768855 -36.33109 5.739652 -0 21.1092 -0 -6.917961 -4.455986 -2.145387 -3.305381 15.09096 -19.54435 -0 10.6988 -0 -7.829844 -24.06407 12.16993 -0.3374397 0.4662558 1.9762 2.888144 5.806153 -8.599683 1.027909 20.30313 8.926143 5.50845 -26.83676 9.208146 6.503677 -16.31382 10.56472 85.43168 36.84977 -21.15944 -0 0 15.02685 -8.274893 10.33152 5.114049 6.769021 -19.77729 -1.775708 -95.80925 35.44079 23.29391 0 0 -21.49454 -4.075696 16.25041 20.72855
0.6836692 100.5802 13.99499 -3.322231 5.109352 1.844321 9.050122 -34.81612 4.692295 -0 17.3873 -0 -7.542871 -3.610463 -1.933333 -3.0037 14.58574 -17.27368 -0 19.66514 -0 -9.941715 -20.1189 8.903566 0.4419246 0.7269329 1.673862 3.315813 5.709401 -8.762879 0.7833146 20.31814 8.613878 5.02707 -27.28701 8.837217 6.444532 -15.42588 10.70459 85.96848 36.8278 -21.58279 -0 0 13.03983 -8.88484 10.57622 6.068281 5.735957 -19.55943 -2.09688 -94.31812 34.0388 21.79689 0 0 -21.21335 -2.869789 15.11595 19.67481
0.7139757 100.6124 19.32948 -3.269773 4.522479 1.861847 8.680195 -29.78286 3.61212 -0 15.72827 -0 -8.154019 -4.101251 -2.051058 -2.991023 12.32537 -14.89945 -0 32.27223 -0 -11.20456 -14.58598 6.817414 0.9672136 0.7590427 1.885528 3.517199 6.081561 -8.681599 0.5068613 20.68552 8.12349 4.463171 -26.94804 8.138947 6.476807 -14.75056 11.06271 86.6216 36.65338 -21.9144 -0 0 10.86921 -9.899939 10.76513 7.128513 4.44261 -19.38974 -2.555623 -92.82053 32.42852 20.48518 0 0 -20.82845 -1.81106 13.73993 18.63998
0.7545844 101.153 25.11568 -2.712115 2.985461 1.592068 7.959493 -22.84124 2.962717 -0 15.48728 -0 -8.503921 -5.465181 -2.34178 -3.106737 8.199936 -12.77242 -0 45.22523 -0 -11.39663 -9.380468 6.438204 1.030074 0.7453282 2.697777 3.446522 6.882429 -8.336329 0.3200489 21.18725 7.617314 4.073607 -25.96916 7.332559 6.494998 -14.53092 11.54499 86.96009 36.2408 -21.75398 -0 0 9.336488 -11.20565 10.88774 8.056693 3.448214 -19.40606 -2.903508 -91.6083 30.59695 19.56633 0 0 -20.46732 -0.7951435 12.263 17.39828
0.7973063 102.048 31.00092 -1.78502 0.9015591 1.108247 7.032868 -15.0914 2.747399 -0 15.26102 -0 -8.434536 -7.194019 -2.545378 -3.154096 2.177881 -10.81624 -0 56.14432 -0 -10.84393 -5.483273 7.486061 0.6525345 0.8336901 4.034031 3.104763 7.960161 -7.714226 0.2666654 21.68569 7.168293 3.914692 -24.57199 6.569596 6.385429 -14.84158 12.06808 86.7245 35.64301 -20.82203 -0 0 8.845064 -12.81914 11.0302 8.878748 2.964275 -19.60203 -3.069457 -90.8213 28.62302 19.1885 0 0 -20.26386 0.1668801 10.7584 16.03074
0.8364461 102.9634 36.70499 -0.7371227 -1.176183 0.5400823 6.041569 -7.782209 2.831636 -0 14.12353 -0 -7.895636 -8.85447 -2.476652 -2.925437 -4.982858 -8.999006 -0 62.05163 -0 -9.858462 -3.593377 9.52878 -0.03738844 1.053477 5.57573 2.559112 9.030804 -6.896818 0.341155 22.06728 6.821151 3.912631 -23.09149 6.00287 6.052908 -15.6645 12.5107 85.82064 34.94405 -19.01589 -0 0 9.576609 -14.66953 11.23755 9.661129 3.026783 -19.86159 -3.036842 -90.48301 26.76593 19.36236 0 0 -20.23961 0.9524333 9.422736 14.74618
0.893574 103.5144 42.11945 0.1780011 -2.788025 -0.007052735 5.134494 -1.410223 2.939665 -0 11.89834 -0 -7.003602 -10.36384 -2.063566 -2.248459 -12.47433 -7.188362 -0 61.50729 -0 -8.674808 -3.523584 12.01071 -0.807782 1.340241 6.969019 1.912744 9.833606 -6.003823 0.4717906 22.3021 6.566256 3.901283 -21.82247 5.684697 5.480032 -16.90644 12.80048 84.31791 34.27331 -16.38424 -0 0 11.40311 -16.71801 11.54079 10.56042 3.444315 -19.99854 -2.843281 -90.5119 25.24727 20.05702 0 0 -20.23788 1.464671 8.450646 13.74292
1.007723 103.4219 47.31429 0.7341856 -3.625718 -0.480638 4.498242 3.826193 2.834365 -0 9.125538 -0 -6.017478 -11.81473 -1.386683 -1.048322 -19.26652 -5.317711 -0 54.59154 -0 -7.465929 -4.594849 14.39819 -1.404531 1.573163 7.883626 1.310881 10.19594 -5.216099 0.5648814 22.38906 6.368454 3.727153 -21.01526 5.592805 4.71726 -18.40559 12.89418 82.45004 33.7216 -13.18744 -0 0 13.9312 -18.82459 11.85461 11.68547 3.935856 -19.85536 -2.548249 -90.74207 24.19831 21.12302 0 0 -20.02016 1.696339 7.934247 13.09234
1.209765 102.6016 52.46441 0.8146548 -3.61854 -0.8727996 4.239936 8.057748 2.385963 -0 6.625171 -0 -5.229601 -13.39484 -0.5922085 0.5758794 -24.59936 -3.444167 -0 42.99334 -0 -6.364635 -5.929251 16.31346 -1.655552 1.626815 8.176729 0.8706489 10.10247 -4.689665 0.5484518 22.3484 6.190173 3.337185 -20.78024 5.635563 3.863788 -19.9838 12.79072 80.50878 33.35297 -9.802151 -0 0 16.66016 -20.80616 12.02328 13.05262 4.266721 -19.38502 -2.200453 -91.01575 23.61093 22.38982 0 0 -19.39063 1.735064 7.825636 12.74023
1.505052 101.1632 57.77093 0.4446742 -2.928062 -1.206468 4.319257 11.47776 1.642181 -0 5.07966 -0 -4.861798 -15.16062 0.153974 2.305104 -28.06836 -1.800018 -0 29.50645 -0 -5.460825 -6.809443 17.60133 -1.537066 1.406348 7.932603 0.6435081 9.687942 -4.506126 0.4121633 22.20636 6.005411 2.80179 -21.06725 5.694988 3.018119 -21.46293 12.51216 78.81877 33.15113 -6.695848 -0 0 19.09397 -22.44547 11.8591 14.53709 4.334351 -18.68075 -1.837006 -91.22739 23.36712 23.67751 0 0 -18.29456 1.715685 7.943541 12.56903
1.883378 99.33185 63.41115 -0.1985425 -1.872347 -1.535984 4.529531 14.26188 0.7941487 -0 4.720642 -0 -4.985234 -16.90379 0.7336082 3.706492 -29.76532 -0.6790709 -0 17.14386 -0 -4.764626 -6.924319 18.32956 -1.189211 0.8861466 7.433371 0.5958575 9.175266 -4.631711 0.2148413 21.99283 5.810895 2.281167 -21.68833 5.680835 2.23726 -22.70058 12.09461 77.66468 33.01968 -4.308587 -0 0 20.88816 -23.5908 11.24571 15.92215 4.188938 -17.9386 -1.488248 -91.36273 23.29182 24.86297 0 0 -16.84213 1.753407 8.06123 12.47935
2.33945 97.35138 69.51558 -0.8304279 -0.8223313 -1.94509 4.570441 16.52784 0.1043614 -0 5.365473 -0 -5.480712 -18.12019 1.099601 4.421932 -30.14559 -0.2564271 -0 8.301175 -0 -4.219155 -6.414459 18.69929 -0.8572996 0.1325916 7.031986 0.6379253 8.790067 -4.931008 0.06095847 21.73892 5.619575 1.945833 -22.39495 5.571249 1.527554 -23.60405 11.58668 77.24015 32.7741 -2.944448 -0 0 21.92022 -24.22148 10.20266 16.9835 3.969563 -17.3619 -1.196941 -91.48905 23.21797 25.89616 0 0 -15.24296 1.879408 7.983873 12.44813
2.879781 95.42085 76.15206 -1.15508 -0.09726405 -2.507836 4.175058 18.36019 -0.1957348 -0 6.737418 -0 -6.051993 -18.1547 1.281383 4.288649 -29.77519 -0.5026828 -0 4.147063 -0 -3.749919 -5.726687 18.90826 -0.7910905 -0.7145437 6.993429 0.6701693 8.68104 -5.219587 0.05058174 21.47395 5.449437 1.893958 -22.97147 5.414449 0.8835263 -24.13314 11.05901 77.57625 32.20558 -2.66248 -0 0 22.28428 -24.46487 8.912039 17.58025 3.805459 -17.05632 -1.016669 -91.70312 23.04534 26.78503 0 0 -13.70251 2.021575 7.610831 12.5276
3.511027 93.68745 83.31214 -0.978354 0.08625484 -3.218079 3.231768 19.80928 0.02202395 -0 8.895989 -0 -6.30455 -16.4586 1.327038 3.317043 -29.03841 -1.263002 -0 4.522858 -0 -3.311206 -5.356091 19.05583 -1.149286 -1.495971 7.381429 0.6205041 8.881484 -5.334024 0.2316875 21.22671 5.312592 2.10271 -23.28499 5.294668 0.3472175 -24.28367 10.60927 78.51488 31.184 -3.257004 -0 0 22.19649 -24.52313 7.685832 17.68929 3.736233 -16.97522 -0.9949461 -92.05541 22.77699 27.53715 0 0 -12.34542 2.036898 6.952694 12.79813
4.226122 92.28213 90.90455 -0.2895059 -0.3687249 -3.938914 1.844248 20.82821 0.7460254 -0 12.46443 -0 -5.901076 -12.86246 1.20185 1.633967 -27.95583 -2.371619 -0 8.234074 -0 -2.900668 -5.612929 19.13722 -1.940266 -2.086078 8.03523 0.4588333 9.318925 -5.196511 0.5750798 21.0335 5.215964 2.438225 -23.27973 5.290089 0.03632645 -24.06672 10.34321 79.771 29.77423 -4.3626 -0 0 21.85545 -24.5629 6.882394 17.38722 3.696288 -16.95604 -1.15472 -92.49051 22.52132 28.09816 0 0 -11.21634 1.785307 6.124785 13.3072
5.000945 91.35321 98.75429 0.7266055 -1.427531 -4.424921 0.3156394 21.16356 1.814693 -0 18.40732 -0 -4.727326 -7.754218 0.7368547 -0.5201595 -26.19386 -3.682536 -0 13.52612 -0 -2.55309 -6.520963 19.1033 -3.004784 -2.410274 8.634679 0.196313 9.863625 -4.855281 0.9825673 20.94519 5.170692 2.719172 -22.94729 5.44436 0.09771059 -23.50231 10.32823 81.07708 28.26936 -5.64505 -0 0 21.32946 -24.63744 6.77508 16.80539 3.570087 -16.83787 -1.488571 -92.83983 22.44828 28.32374 0 0 -10.34549 1.209036 5.324207 14.03368
5.799876 91.05106 106.6084 1.751449 -2.906309 -4.427664 -0.9321691 20.29574 2.929372 -0 27.30693 -0 -2.998899 -2.070658 -0.2651144 -2.764459 -23.28794 -5.020652 -0 18.55607 -0 -2.314768 -7.874482 18.92308 -4.046944 -2.434589 8.827906 -0.115948 10.39341 -4.488712 1.322041 21.01341 5.199294 2.805846 -22.32713 5.750454 0.596627 -22.64289 10.54448 82.31461 27.08091 -6.958384 -0 0 20.53875 -24.68286 7.402403 16.08471 3.285725 -16.60378 -1.963854 -92.87417 22.69513 28.00722 0 0 -9.822002 0.389856 4.778291 14.88284
